<mxfile host="app.diagrams.net" agent="Mozilla/5.0 (Windows NT 10.0; Win64; x64) AppleWebKit/537.36 (KHTML, like Gecko) Chrome/141.0.0.0 Safari/537.36" version="28.2.7">
  <diagram name="Seite-1" id="uO2UrZivr9gvkJktDG5o">
    <mxGraphModel dx="1722" dy="948" grid="1" gridSize="10" guides="1" tooltips="1" connect="1" arrows="1" fold="1" page="1" pageScale="1" pageWidth="827" pageHeight="1169" math="0" shadow="0">
      <root>
        <mxCell id="0" />
        <mxCell id="1" parent="0" />
        <mxCell id="SVEBSsm7RerCGnV4KXjt-18" style="edgeStyle=orthogonalEdgeStyle;rounded=0;orthogonalLoop=1;jettySize=auto;html=1;exitX=1;exitY=0.5;exitDx=0;exitDy=0;" edge="1" parent="1">
          <mxGeometry relative="1" as="geometry">
            <mxPoint x="480" y="159.95238095238096" as="targetPoint" />
            <mxPoint x="440" y="160" as="sourcePoint" />
          </mxGeometry>
        </mxCell>
        <mxCell id="SVEBSsm7RerCGnV4KXjt-24" value="" style="group" vertex="1" connectable="0" parent="1">
          <mxGeometry x="480" y="120" width="120" height="80" as="geometry" />
        </mxCell>
        <mxCell id="SVEBSsm7RerCGnV4KXjt-72" style="edgeStyle=orthogonalEdgeStyle;rounded=0;orthogonalLoop=1;jettySize=auto;html=1;exitX=0.5;exitY=1;exitDx=0;exitDy=0;endArrow=none;endFill=0;startArrow=classic;startFill=1;" edge="1" parent="SVEBSsm7RerCGnV4KXjt-24" source="SVEBSsm7RerCGnV4KXjt-19">
          <mxGeometry relative="1" as="geometry">
            <mxPoint x="59.66666666666697" y="120" as="targetPoint" />
          </mxGeometry>
        </mxCell>
        <mxCell id="SVEBSsm7RerCGnV4KXjt-19" value="" style="rounded=0;whiteSpace=wrap;html=1;fillColor=#dae8fc;strokeColor=#6c8ebf;" vertex="1" parent="SVEBSsm7RerCGnV4KXjt-24">
          <mxGeometry width="120" height="80" as="geometry" />
        </mxCell>
        <mxCell id="SVEBSsm7RerCGnV4KXjt-20" value="" style="endArrow=none;html=1;rounded=0;strokeWidth=4;curved=0;" edge="1" parent="SVEBSsm7RerCGnV4KXjt-24">
          <mxGeometry width="50" height="50" relative="1" as="geometry">
            <mxPoint x="20" y="60" as="sourcePoint" />
            <mxPoint x="30" y="20" as="targetPoint" />
          </mxGeometry>
        </mxCell>
        <mxCell id="SVEBSsm7RerCGnV4KXjt-21" value="" style="endArrow=none;html=1;rounded=0;strokeWidth=4;curved=0;" edge="1" parent="SVEBSsm7RerCGnV4KXjt-24">
          <mxGeometry width="50" height="50" relative="1" as="geometry">
            <mxPoint x="40" y="40" as="sourcePoint" />
            <mxPoint x="30" y="20" as="targetPoint" />
          </mxGeometry>
        </mxCell>
        <mxCell id="SVEBSsm7RerCGnV4KXjt-22" value="" style="endArrow=none;html=1;rounded=0;strokeWidth=4;curved=0;" edge="1" parent="SVEBSsm7RerCGnV4KXjt-24">
          <mxGeometry width="50" height="50" relative="1" as="geometry">
            <mxPoint x="80" y="40" as="sourcePoint" />
            <mxPoint x="40" y="40" as="targetPoint" />
          </mxGeometry>
        </mxCell>
        <mxCell id="SVEBSsm7RerCGnV4KXjt-23" value="" style="endArrow=none;html=1;rounded=0;strokeWidth=4;curved=0;" edge="1" parent="SVEBSsm7RerCGnV4KXjt-24">
          <mxGeometry width="50" height="50" relative="1" as="geometry">
            <mxPoint x="100" y="60" as="sourcePoint" />
            <mxPoint x="80" y="40" as="targetPoint" />
          </mxGeometry>
        </mxCell>
        <mxCell id="SVEBSsm7RerCGnV4KXjt-27" value="" style="endArrow=classic;html=1;rounded=0;" edge="1" parent="1">
          <mxGeometry width="50" height="50" relative="1" as="geometry">
            <mxPoint x="539.76" y="80" as="sourcePoint" />
            <mxPoint x="539.76" y="120" as="targetPoint" />
          </mxGeometry>
        </mxCell>
        <mxCell id="SVEBSsm7RerCGnV4KXjt-28" value="A, D, S, R" style="text;html=1;whiteSpace=wrap;strokeColor=none;fillColor=none;align=center;verticalAlign=middle;rounded=0;" vertex="1" parent="1">
          <mxGeometry x="510" y="50" width="60" height="30" as="geometry" />
        </mxCell>
        <mxCell id="SVEBSsm7RerCGnV4KXjt-30" value="Trigger" style="text;html=1;whiteSpace=wrap;strokeColor=none;fillColor=none;align=center;verticalAlign=middle;rounded=0;" vertex="1" parent="1">
          <mxGeometry x="510" y="240" width="60" height="30" as="geometry" />
        </mxCell>
        <mxCell id="SVEBSsm7RerCGnV4KXjt-38" style="edgeStyle=orthogonalEdgeStyle;rounded=0;orthogonalLoop=1;jettySize=auto;html=1;exitX=1;exitY=0.5;exitDx=0;exitDy=0;entryX=0;entryY=0.5;entryDx=0;entryDy=0;" edge="1" parent="1" source="SVEBSsm7RerCGnV4KXjt-19">
          <mxGeometry relative="1" as="geometry">
            <mxPoint x="640" y="160" as="targetPoint" />
          </mxGeometry>
        </mxCell>
      </root>
    </mxGraphModel>
  </diagram>
</mxfile>
